<?xml version="1.0" encoding="UTF-8"?>
<svg width="46px" height="45px" viewBox="0 0 46 45" version="1.1" xmlns="http://www.w3.org/2000/svg" xmlns:xlink="http://www.w3.org/1999/xlink">
    <title>Backed By Quality Icon</title>
    <g id="Page-1" stroke="none" stroke-width="1" fill="none" fill-rule="evenodd">
        <g id="Direct-Pool-Supplies---Homepage-v7" transform="translate(-1604.000000, -2510.000000)" fill="#FFFFFF" fill-rule="nonzero">
            <g id="Backed-By-Quality-Icon" transform="translate(1604.000000, 2510.000000)">
                <path d="M5.90741197,28.6862058 C5.80472698,28.547 5.6412221,28.4654748 5.46793605,28.4670554 C5.29212082,28.4736855 5.13276274,28.5720615 5.04843631,28.7260471 L0.254153611,36.9731966 C-0.114132009,37.6298632 -0.0799895054,38.4374256 0.342416337,39.0608485 C0.764822179,39.6842715 1.50341441,40.0171774 2.2517714,39.921453 L7.02607793,39.1246269 L8.6841007,43.686456 C8.95171276,44.4082084 9.61224966,44.9117114 10.3808737,44.9798436 C11.1494978,45.0479758 11.8887359,44.6685515 12.2798127,44.0051864 L16.2750483,37.351689 C16.3460939,37.2212434 16.3460939,37.0638009 16.2750483,36.9333553 C16.2245953,36.7943367 16.1148118,36.6848584 15.9754056,36.6345455 C11.8494658,35.1339585 8.31875365,32.3465809 5.90741197,28.6862058 L5.90741197,28.6862058 Z" id="Path"></path>
                <path d="M45.6799822,36.9731966 L40.9456281,28.6662852 C40.8592223,28.5170261 40.6989467,28.4256946 40.5261283,28.4272373 C40.3573541,28.421506 40.1980031,28.5047436 40.1066286,28.6463645 C37.6745168,32.3164622 34.1239626,35.1099019 29.9787064,36.6146249 C29.8433913,36.6711823 29.7357788,36.7784957 29.6790637,36.9134347 C29.6080182,37.0438802 29.6080182,37.2013228 29.6790637,37.3317683 L33.6742993,44.0251071 C34.0687207,44.6873929 34.8106804,45.0635689 35.5796828,44.9911428 C36.3486851,44.9187167 37.006902,44.4106693 37.2700113,43.686456 L38.9280341,39.1246269 L43.7023406,39.921453 C44.4711038,40.0623875 45.25167,39.7432449 45.6999584,39.1047063 C46.1071161,38.4501095 46.0993373,37.6200904 45.6799822,36.9731966 Z" id="Path"></path>
                <path d="M40.4062713,17.431038 C40.4062713,10.3774091 36.1432574,4.01908485 29.6068383,1.32351496 C23.0704192,-1.37205493 15.5491983,0.126547458 10.5533527,5.11991977 C5.55750706,10.1132921 4.0719424,17.6170162 6.78997632,24.1290809 C9.50801025,30.6411456 15.8937961,34.8777302 22.9670679,34.8616535 C32.604933,34.8396394 40.4062713,27.0421382 40.4062713,17.431038 Z M29.9187778,24.2439006 C30.1271797,24.7150336 30.0037789,25.2665866 29.6143215,25.6047012 C29.2248641,25.9428157 28.6600499,25.9887491 28.2208027,25.7180288 L23.1868059,22.8892964 C23.0295783,22.811073 22.844629,22.811073 22.6874014,22.8892964 L17.6534046,25.7180288 C17.2141574,25.9887491 16.6493432,25.9428157 16.2598858,25.6047012 C15.8704284,25.2665866 15.7470276,24.7150336 15.9554295,24.2439006 L17.9530473,19.542627 C18.0344075,19.3500389 17.9865407,19.1272815 17.8331902,18.9848488 L14.1975258,15.3592903 C13.807099,15.0562072 13.6627047,14.5333591 13.84248,14.0736782 C14.0222552,13.6139973 14.4834914,13.3266886 14.9765967,13.3672252 L19.2115465,13.3672252 C19.4061056,13.3714723 19.5854187,13.2626286 19.6709986,13.0883361 L21.8683781,8.54642766 C22.0822282,8.1570949 22.4919542,7.91503141 22.9371037,7.91503141 C23.3822531,7.91503141 23.7919791,8.1570949 24.0058292,8.54642766 L26.2032087,13.0684154 C26.2818627,13.2395553 26.4539076,13.3487342 26.6426847,13.3473045 L30.9575391,13.3473045 C31.4545433,13.296266 31.9252283,13.5800777 32.1107871,14.0426854 C32.296346,14.505293 32.1517829,15.0345199 31.7565862,15.3393696 L27.9611124,18.9848488 C27.8197488,19.1345233 27.7805525,19.3534122 27.8612315,19.542627 L29.9187778,24.2439006 Z" id="Shape"></path>
            </g>
        </g>
    </g>
</svg>