<?xml version="1.0" encoding="UTF-8"?>
<svg width="30.3333333px" height="31.3346794px" viewBox="0 0 30.3333333 31.3346794" version="1.1" xmlns="http://www.w3.org/2000/svg" xmlns:xlink="http://www.w3.org/1999/xlink">
    <title>Brochure Icon</title>
    <g id="Page-1" stroke="none" stroke-width="1" fill="none" fill-rule="evenodd" stroke-linecap="round" stroke-linejoin="round">
        <g id="Direct-Pool-Supplies---Product-Page-v3" transform="translate(-209.333333, -778.333329)" stroke="#000000" stroke-width="1.33333333">
            <g id="Brochure-Icon" transform="translate(210.000000, 779.000000)">
                <path d="M22.4090909,4.87736978 C24.3681063,4.56595588 26.3479472,4.40260362 28.3316818,4.38864553 C28.5080768,4.3862488 28.6780995,4.4543592 28.8037059,4.57780101 C28.9293123,4.70124282 29,4.86971144 29,5.04551078 L29,25.7557533 C29,26.1149335 28.7105337,26.4075256 28.3501364,26.4125541 C17.6636364,26.547855 14.5,30 14.5,30 L14.5,7.9761559 C14.5,7.9761559 11.3363636,4.52795175 0.668318185,4.38864553 C0.491923159,4.3862488 0.321900531,4.4543592 0.196294095,4.57780101 C0.0706876592,4.70124282 0,4.86971144 0,5.04551078 L0,25.7557533 C0,26.1149335 0.289466341,26.4075256 0.649863639,26.4125541 C11.3363636,26.547855 14.5,30 14.5,30" id="Path"></path>
                <path d="M14.5,29.3431992 C15.0386871,25.2331115 18.2846722,21.998405 22.4090909,21.4615897 L22.4090909,0.656767897 C22.4090909,0.444699703 22.3063165,0.24568594 22.1331654,0.122399151 C21.9600144,-0.000887638119 21.7377827,-0.0332757454 21.5364545,0.03543435 C14.9574091,2.27381144 14.5,7.05138039 14.5,7.66877313" id="Path"></path>
            </g>
        </g>
    </g>
</svg>