<?xml version="1.0" encoding="UTF-8"?>
<svg width="20px" height="20px" viewBox="0 0 20 20" version="1.1" xmlns="http://www.w3.org/2000/svg" xmlns:xlink="http://www.w3.org/1999/xlink">
    <title>2B636010-372A-4AB3-8969-3B165CE08DB4</title>
    <g id="Page-1" stroke="none" stroke-width="1" fill="none" fill-rule="evenodd">
        <g id="Direct-Pool-Supplies---Homepage-v8" transform="translate(-1375.000000, -7084.000000)" fill="#FFFFFF" fill-rule="nonzero">
            <g id="Call-Icon-Copy" transform="translate(1375.000000, 7084.000000)">
                <path d="M19.2693197,14.3563594 L17.139204,12.2235753 C16.6813169,11.7556607 16.0545948,11.4919796 15.4003341,11.4919796 C14.7460734,11.4919796 14.1193513,11.7556607 13.6614642,12.2235753 L13.235441,12.6501321 C11.0897991,10.8573141 9.10831487,8.87626086 7.31458889,6.73056788 L7.74930638,6.29530581 C8.70890318,5.33343857 8.70890318,3.77507645 7.74930638,2.81320921 L5.64527375,0.706540777 C4.67693712,-0.235513592 3.1358705,-0.235513592 2.16753387,0.706540777 L1.00249102,1.87304314 C-0.148087281,3.0403668 -0.32915705,4.85333282 0.567773531,6.22566387 C4.04222962,11.4629474 8.52637121,15.9527065 13.757102,19.4315152 C15.127716,20.3295694 16.9384137,20.1482728 18.1042769,18.9962531 L19.2693197,17.838456 C19.7366488,17.3799953 20,16.752488 20,16.0974077 C20,15.4423274 19.7366488,14.8148201 19.2693197,14.3563594 L19.2693197,14.3563594 Z" id="Path"></path>
            </g>
        </g>
    </g>
</svg>