<?xml version="1.0" encoding="UTF-8"?>
<svg width="25.407998px" height="25.2659685px" viewBox="0 0 25.407998 25.2659685" version="1.1" xmlns="http://www.w3.org/2000/svg" xmlns:xlink="http://www.w3.org/1999/xlink">
    <title>Cart Icon</title>
    <g id="Page-1" stroke="none" stroke-width="1" fill="none" fill-rule="evenodd">
        <g id="Direct-Pool-Supplies---Homepage-v7" transform="translate(-1834.296000, -118.296000)" stroke="#000000" stroke-width="1.408">
            <g id="Cart-Icon" transform="translate(1847.000000, 131.000000) scale(-1, 1) translate(-1847.000000, -131.000000) translate(1835.000000, 119.000000)">
                <path d="M5.14329464,20.4490981 L16.4813173,20.4490981 C16.8862222,20.4490981 17.2780988,20.3067256 17.5875773,20.0468647 C17.8969416,19.7871175 18.1037939,19.4269255 18.1715638,19.029919 L21.1852082,1.41804287 C21.2532066,1.0213204 21.4601732,0.661310226 21.7695375,0.401778846 C22.0789017,0.142236103 22.4706641,0 22.8754547,0 L24,0" id="Path" stroke-linecap="round" stroke-linejoin="round"></path>
                <path d="M7.28610207,23.8579685 C7.04941042,23.8579685 6.85754058,23.6671917 6.85754058,23.4318739 C6.85754058,23.196556 7.04941042,23.0057793 7.28610207,23.0057793" id="Path"></path>
                <path d="M7.28610207,23.8579685 C7.52279372,23.8579685 7.71466355,23.6671917 7.71466355,23.4318739 C7.71466355,23.196556 7.52279372,23.0057793 7.28610207,23.0057793" id="Path"></path>
                <path d="M15.8573318,23.8579685 C15.6206516,23.8579685 15.4287703,23.6671917 15.4287703,23.4318739 C15.4287703,23.196556 15.6206516,23.0057793 15.8573318,23.0057793" id="Path"></path>
                <path d="M15.8573318,23.8579685 C16.094012,23.8579685 16.2858933,23.6671917 16.2858933,23.4318739 C16.2858933,23.196556 16.094012,23.0057793 15.8573318,23.0057793" id="Path"></path>
                <path d="M18.8034349,15.3361901 L5.00836063,15.3361901 C4.24389837,15.3360765 3.50138988,15.0820104 2.89883243,14.6142154 C2.29627498,14.146534 1.86822777,13.491939 1.6827235,12.7546249 L0.0256190912,6.1643504 C-0.00600303224,6.03866954 -0.00838011995,5.90747785 0.0186478244,5.78074027 C0.0456871971,5.65400269 0.101434475,5.53507117 0.181649757,5.43296754 C0.26185361,5.33086391 0.364422659,5.24829246 0.481562799,5.1915253 C0.59869151,5.13475813 0.72729424,5.10536317 0.857599788,5.10536317 L20.5531085,5.10536317" id="Path" stroke-linecap="round" stroke-linejoin="round"></path>
                <line x1="5.14329464" y1="8.51856284" x2="5.14329464" y2="11.0751304" id="Path" stroke-linecap="round" stroke-linejoin="round"></line>
                <line x1="10.2860325" y1="8.51856284" x2="10.2860325" y2="11.0751304" id="Path" stroke-linecap="round" stroke-linejoin="round"></line>
                <line x1="15.4287703" y1="8.51856284" x2="15.4287703" y2="11.0751304" id="Path" stroke-linecap="round" stroke-linejoin="round"></line>
            </g>
        </g>
    </g>
</svg>