<?xml version="1.0" encoding="UTF-8"?>
<svg width="18.0799985px" height="17.9793943px" viewBox="0 0 18.0799985 17.9793943" version="1.1" xmlns="http://www.w3.org/2000/svg" xmlns:xlink="http://www.w3.org/1999/xlink">
    <title>Cart Icon</title>
    <g id="Page-1" stroke="none" stroke-width="1" fill="none" fill-rule="evenodd">
        <g id="Direct-Pool-Supplies---Product-Page-v3" transform="translate(-1502.460000, -1108.460000)" stroke="#FFFFFF" stroke-width="1.08">
            <g id="Cart-Icon" transform="translate(1511.500000, 1117.500000) scale(-1, 1) translate(-1511.500000, -1117.500000) translate(1503.000000, 1109.000000)">
                <path d="M3.64316704,14.4847778 L11.6742664,14.4847778 C11.9610741,14.4847778 12.2386533,14.3839307 12.4578673,14.1998625 C12.6770003,14.0158749 12.8235207,13.7607389 12.8715244,13.4795259 L15.0061891,1.00444704 C15.0543547,0.72343528 15.200956,0.468428077 15.420089,0.284593349 C15.639222,0.100750573 15.9167204,0 16.2034471,0 L17,0" id="Path" stroke-linecap="round" stroke-linejoin="round"></path>
                <path d="M5.16098896,16.8993943 C4.99333238,16.8993943 4.85742458,16.7642608 4.85742458,16.5975773 C4.85742458,16.4308938 4.99333238,16.2957603 5.16098896,16.2957603" id="Path"></path>
                <path d="M5.16098896,16.8993943 C5.32864555,16.8993943 5.46455335,16.7642608 5.46455335,16.5975773 C5.46455335,16.4308938 5.32864555,16.2957603 5.16098896,16.2957603" id="Path"></path>
                <path d="M11.2322767,16.8993943 C11.0646282,16.8993943 10.9287123,16.7642608 10.9287123,16.5975773 C10.9287123,16.4308938 11.0646282,16.2957603 11.2322767,16.2957603" id="Path"></path>
                <path d="M11.2322767,16.8993943 C11.3999252,16.8993943 11.5358411,16.7642608 11.5358411,16.5975773 C11.5358411,16.4308938 11.3999252,16.2957603 11.2322767,16.2957603" id="Path"></path>
                <path d="M13.3190997,10.8631346 L3.54758878,10.8631346 C3.00609468,10.8630542 2.48015116,10.6830907 2.05333964,10.3517359 C1.62652811,10.0204615 1.323328,9.55679014 1.19192915,9.03452599 L0.0181468563,4.36641487 C-0.00425214784,4.27739092 -0.0059359183,4.18446348 0.0132088756,4.09469103 C0.0323617646,4.00491858 0.0718494198,3.92067541 0.128668578,3.84835201 C0.185479641,3.7760286 0.258132717,3.71754049 0.341106982,3.67733042 C0.424073153,3.63712034 0.515166753,3.61629891 0.607466517,3.61629891 L14.5584519,3.61629891" id="Path" stroke-linecap="round" stroke-linejoin="round"></path>
                <line x1="3.64316704" y1="6.03398201" x2="3.64316704" y2="7.84488406" id="Path" stroke-linecap="round" stroke-linejoin="round"></line>
                <line x1="7.28593966" y1="6.03398201" x2="7.28593966" y2="7.84488406" id="Path" stroke-linecap="round" stroke-linejoin="round"></line>
                <line x1="10.9287123" y1="6.03398201" x2="10.9287123" y2="7.84488406" id="Path" stroke-linecap="round" stroke-linejoin="round"></line>
            </g>
        </g>
    </g>
</svg>