<?xml version="1.0" encoding="UTF-8"?>
<svg width="33.6669565px" height="25.4114136px" viewBox="0 0 33.6669565 25.4114136" version="1.1" xmlns="http://www.w3.org/2000/svg" xmlns:xlink="http://www.w3.org/1999/xlink">
    <title>Chat Now Icon</title>
    <g id="Page-1" stroke="none" stroke-width="1" fill="none" fill-rule="evenodd">
        <g id="Direct-Pool-Supplies---Homepage-v7" transform="translate(-1604.295000, -118.295000)">
            <g id="Chat-Now-Icon" transform="translate(1605.000000, 119.000000)">
                <g id="messages-bubble-square-typing" stroke="#000000" stroke-width="1.41">
                    <path d="M0,17.6842105 C0,18.0192 0.132841435,18.3405474 0.36929987,18.5773895 C0.605759565,18.8142316 0.926461739,18.9473684 1.26086957,18.9473684 L3.7826087,18.9473684 L3.7826087,24 L8.82608696,18.9473684 L27.7391304,18.9473684 C28.073513,18.9473684 28.3942783,18.8142316 28.6306913,18.5773895 C28.8671043,18.3405474 29,18.0192 29,17.6842105 L29,1.26315789 C29,0.928143158 28.8671043,0.606858947 28.6306913,0.369966316 C28.3942783,0.133086316 28.073513,0 27.7391304,0 L1.26086957,0 C0.926461739,0 0.605759565,0.133086316 0.36929987,0.369966316 C0.132841435,0.606858947 0,0.928143158 0,1.26315789 L0,17.6842105 Z" id="Path" stroke-linecap="round" stroke-linejoin="round"></path>
                    <path d="M8.51086957,9.78947368 C8.3367813,9.78947368 8.19565217,9.64812632 8.19565217,9.47368421 C8.19565217,9.29928 8.3367813,9.15789474 8.51086957,9.15789474" id="Path"></path>
                    <path d="M8.51086957,9.78947368 C8.68495783,9.78947368 8.82608696,9.64812632 8.82608696,9.47368421 C8.82608696,9.29928 8.68495783,9.15789474 8.51086957,9.15789474" id="Path"></path>
                    <path d="M14.5,9.78947368 C14.3258739,9.78947368 14.1847826,9.64812632 14.1847826,9.47368421 C14.1847826,9.29928 14.3258739,9.15789474 14.5,9.15789474" id="Path"></path>
                    <path d="M14.5,9.78947368 C14.6741261,9.78947368 14.8152174,9.64812632 14.8152174,9.47368421 C14.8152174,9.29928 14.6741261,9.15789474 14.5,9.15789474" id="Path"></path>
                    <g id="Group" transform="translate(19.701087, 8.842105)">
                        <path d="M0.788043478,0.947368421 C0.613917391,0.947368421 0.472826087,0.806021053 0.472826087,0.631578947 C0.472826087,0.457174737 0.613917391,0.315789474 0.788043478,0.315789474" id="Path"></path>
                        <path d="M0.788043478,0.947368421 C0.962169565,0.947368421 1.10326087,0.806021053 1.10326087,0.631578947 C1.10326087,0.457174737 0.962169565,0.315789474 0.788043478,0.315789474" id="Path"></path>
                    </g>
                </g>
                <circle id="Oval" stroke="#FFFFFF" fill="#0CCF59" cx="26.4619565" cy="17.5" r="6"></circle>
            </g>
        </g>
    </g>
</svg>