<?xml version="1.0" encoding="UTF-8"?>
<svg width="27.5px" height="46.5px" viewBox="0 0 27.5 46.5" version="1.1" xmlns="http://www.w3.org/2000/svg" xmlns:xlink="http://www.w3.org/1999/xlink">
    <title>Chlorinators Parts Icon</title>
    <g id="Page-1" stroke="none" stroke-width="1" fill="none" fill-rule="evenodd" stroke-linecap="round" stroke-linejoin="round">
        <g id="Direct-Pool-Supplies---Homepage-v7" transform="translate(-398.250000, -3026.250000)" stroke="#000000" stroke-width="1.5">
            <g id="Chlorinators-Parts-Icon" transform="translate(399.000000, 3027.000000)">
                <rect id="Rectangle" x="6" y="0" width="14" height="6" rx="0.8"></rect>
                <path d="M8,6 L8,13.49385 C7.98342619,14.2610059 7.50197822,14.9455966 6.774,15.23715 C1.724,17.427 0,22.0173 0,27.45 L0,43.05 C0,44.1269553 0.8954305,45 2,45 L24,45 C25.1045695,45 26,44.1269553 26,43.05 L26,27.45 C26,22.0173 24.276,17.427 19.226,15.23715 C18.4980218,14.9455966 18.0165738,14.2610059 18,13.49385 L18,6" id="Path"></path>
                <line x1="7" y1="37.5" x2="19" y2="37.5" id="Path"></line>
                <path d="M12,24.8333313 C11.6567785,23.7652325 10.5885587,23 9.5,23 C8.1192864,23 7,24.2312164 7,25.7499969 L7,31.2500031 C7,32.7687347 8.1192864,34 9.5,34 C10.5885587,34 11.6567785,33.2347675 12,32.1666687" id="Path"></path>
                <path d="M17,23 L17,32.1666606 C17,33.179275 17.8954667,34 19,34" id="Path"></path>
            </g>
        </g>
    </g>
</svg>