<?xml version="1.0" encoding="UTF-8"?>
<svg width="31px" height="30px" viewBox="0 0 31 30" version="1.1" xmlns="http://www.w3.org/2000/svg" xmlns:xlink="http://www.w3.org/1999/xlink">
    <title>3B50F7B0-3F37-41E2-978F-013FEDDE8837</title>
    <g id="Page-1" stroke="none" stroke-width="1" fill="none" fill-rule="evenodd" stroke-linecap="round" stroke-linejoin="round">
        <g id="Direct-Pool-Supplies---Homepage-v8" transform="translate(-849.000000, -4574.000000)" stroke="#000000" stroke-width="1.5">
            <g id="Group-15" transform="translate(718.000000, 4543.000000)">
                <g id="Customer-Service-Icon" transform="translate(131.000000, 31.000000)">
                    <path d="M19.5423506,28 L22.237251,28 C24.8432197,28 26.9533267,26.5786667 26.9533267,24 L26.9533267,23.1053333" id="Path"></path>
                    <path d="M15.5,28 C15.5,29.1045695 16.404911,30 17.5211753,30 C18.6374396,30 19.5423506,29.1045695 19.5423506,28 C19.5423506,26.8954305 18.6374396,26 17.5211753,26 C16.404911,26 15.5,26.8954305 15.5,28 Z" id="Path"></path>
                    <path d="M25.6058764,12.6666653 C28.23221,12.6648268 30.4775197,14.536407 30.9218113,17.0977696 C31.3661029,19.6591321 29.8800088,22.1644672 27.4033751,23.0293333 C26.9908118,23.1739932 26.5329453,23.1113478 26.1755301,22.8613393 C25.8181149,22.6113307 25.6056897,22.2051134 25.6058764,21.772 L25.6058764,12.6666653 Z" id="Path"></path>
                    <path d="M5.39412359,12.6666653 C2.76779004,12.6648268 0.522480267,14.536407 0.0781886915,17.0977696 C-0.366102884,19.6591321 1.11999119,22.1644672 3.5966249,23.0293333 C4.00918822,23.1739932 4.46705471,23.1113478 4.82446991,22.8613393 C5.1818851,22.6113307 5.39431035,22.2051134 5.39412359,21.772 L5.39412359,12.6666653 Z" id="Path"></path>
                    <path d="M25.6058765,12.6666667 L25.6058765,10 C25.6058765,4.4771525 21.0813215,0 15.5,0 C9.91867851,0 5.39412347,4.4771525 5.39412347,10 L5.39412347,12.6666667" id="Path"></path>
                </g>
            </g>
        </g>
    </g>
</svg>