<?xml version="1.0" encoding="UTF-8"?>
<svg width="26.3266667px" height="31.3266667px" viewBox="0 0 26.3266667 31.3266667" version="1.1" xmlns="http://www.w3.org/2000/svg" xmlns:xlink="http://www.w3.org/1999/xlink">
    <title>Documentation Icon</title>
    <g id="Page-1" stroke="none" stroke-width="1" fill="none" fill-rule="evenodd" stroke-linecap="round" stroke-linejoin="round">
        <g id="Direct-Pool-Supplies---Product-Page-v3" transform="translate(-209.336667, -683.336667)" stroke="#000000" stroke-width="1.32666667">
            <g id="Documentation-Icon" transform="translate(210.000000, 684.000000)">
                <path d="M24.6144737,5.2173913 C24.8612492,5.46194704 25,5.79365894 25,6.13956522 L25,28.6956522 C25,29.4160236 24.410901,30 23.6842105,30 L1.31578947,30 C0.589099013,30 0,29.4160236 0,28.6956522 L0,1.30434783 C0,0.583976413 0.589099013,0 1.31578947,0 L18.8065789,0 C19.1555195,0 19.4901411,0.137544294 19.7368421,0.382173913 L24.6144737,5.2173913 Z" id="Path"></path>
                <line x1="4.60526316" y1="20.2173913" x2="20.3947368" y2="20.2173913" id="Path"></line>
                <line x1="4.60526316" y1="24.1304348" x2="20.3947368" y2="24.1304348" id="Path"></line>
                <line x1="4.60526316" y1="16.3043478" x2="20.3947368" y2="16.3043478" id="Path"></line>
                <line x1="4.60526316" y1="12.3913043" x2="20.3947368" y2="12.3913043" id="Path"></line>
                <line x1="4.60526316" y1="8.47826087" x2="13.8157895" y2="8.47826087" id="Path"></line>
                <line x1="4.60526316" y1="8.47826087" x2="13.8157895" y2="8.47826087" id="Path"></line>
                <line x1="4.60526316" y1="12.3913043" x2="20.3947368" y2="12.3913043" id="Path"></line>
                <line x1="4.60526316" y1="16.3043478" x2="20.3947368" y2="16.3043478" id="Path"></line>
                <line x1="4.60526316" y1="20.2173913" x2="20.3947368" y2="20.2173913" id="Path"></line>
                <line x1="4.60526316" y1="24.1304348" x2="20.3947368" y2="24.1304348" id="Path"></line>
            </g>
        </g>
    </g>
</svg>