<?xml version="1.0" encoding="UTF-8"?>
<svg width="31.3333333px" height="31.3333333px" viewBox="0 0 31.3333333 31.3333333" version="1.1" xmlns="http://www.w3.org/2000/svg" xmlns:xlink="http://www.w3.org/1999/xlink">
    <title>Easy Returns Icon</title>
    <g id="Page-1" stroke="none" stroke-width="1" fill="none" fill-rule="evenodd" stroke-linecap="round" stroke-linejoin="round">
        <g id="Direct-Pool-Supplies---Product-Page-v3" transform="translate(-209.333333, -878.333333)" stroke="#000000" stroke-width="1.33333333">
            <g id="Easy-Returns-Icon" transform="translate(210.000000, 879.000000)">
                <path d="M10,24 L2,24 C0.933333333,24 0,23.0666667 0,22 L0,8 C0,6.93333333 0.933333333,6 2,6 L22,6 C23.0666667,6 24,6.93333333 24,8 L24,13.3333333" id="Path"></path>
                <path d="M23.3333333,6.53334667 L19.6,0.933333333 C19.2,0.4 18.6666667,0 18,0 L6.13333333,0 C5.46666667,0 4.8,0.4 4.53333333,0.933333333 L0.666666667,6.53334667" id="Path"></path>
                <line x1="12" y1="0" x2="12" y2="6" id="Path"></line>
                <path d="M15.3333333,20.6666667 L25.3333333,20.6666667 C27.8666667,20.6666667 30,22.8 30,25.3333333 C30,27.8666667 27.8666667,30 25.3333333,30 L16.6666667,30" id="Path"></path>
                <polyline id="Path" points="19.2 16.8 15.3333333 20.6666667 19.2 24.5333333"></polyline>
            </g>
        </g>
    </g>
</svg>