<?xml version="1.0" encoding="UTF-8"?>
<svg width="16.2356028px" height="14.1667343px" viewBox="0 0 16.2356028 14.1667343" version="1.1" xmlns="http://www.w3.org/2000/svg" xmlns:xlink="http://www.w3.org/1999/xlink">
    <title>64ADC8BA-259C-4A4F-89D2-E1DCF5D6C5C6</title>
    <g id="Page-1" stroke="none" stroke-width="1" fill="none" fill-rule="evenodd">
        <g id="Direct-Pool-Supplies---Homepage-v8" transform="translate(-1376.764397, -7157.000000)" fill="#FFFFFF" fill-rule="nonzero">
            <g id="Email-Icon" transform="translate(1376.764397, 7157.000000)">
                <path d="M8.1973746,6.88119376 C8.26185269,6.92606044 8.3465917,6.92606044 8.41106979,6.88119376 L16.0249503,1.70036496 C16.1744484,1.61944834 16.2571391,1.4502973 16.2307308,1.27942262 C16.0714223,0.51988414 15.4071223,-0.0168752177 14.6478035,0.000405509814 L1.58865298,0.000405509814 C0.812089183,-0.0118359386 0.141548223,0.553970057 0.00572564572,1.33608793 C-0.0215933711,1.49879625 0.0504422459,1.66216835 0.187762289,1.74893523 L8.1973746,6.88119376 Z" id="Path"></path>
                <path d="M9.10755781,7.90116943 C8.87313427,8.05974042 8.59709221,8.14161735 8.31609415,8.13592573 C8.05679556,8.13404449 7.80269058,8.06138508 7.58003294,7.92545456 L0.615152669,3.43270459 C0.491205832,3.3554451 0.335453036,3.3554451 0.211506199,3.43270459 C0.0855019283,3.50517722 0.00701069236,3.64103633 0.00572564572,3.78888657 L0.00572564572,12.5477253 C0.00572564572,13.4418792 0.714426353,14.1667343 1.58865298,14.1667343 L14.6478035,14.1667343 C15.5220301,14.1667343 16.2307741,13.4418792 16.2307741,12.5477253 L16.2307741,3.78079152 C16.2329001,3.63198119 16.1534431,3.49445051 16.0249503,3.42460954 C15.8980661,3.34770469 15.7402733,3.34770469 15.6133892,3.42460954 L9.10755781,7.90116943 Z" id="Path"></path>
            </g>
        </g>
    </g>
</svg>