<?xml version="1.0" encoding="UTF-8"?>
<svg width="36.5px" height="31.5000198px" viewBox="0 0 36.5 31.5000198" version="1.1" xmlns="http://www.w3.org/2000/svg" xmlns:xlink="http://www.w3.org/1999/xlink">
    <title>Expert Advice Icon</title>
    <g id="Page-1" stroke="none" stroke-width="1" fill="none" fill-rule="evenodd">
        <g id="Direct-Pool-Supplies---Product-Page-v3" transform="translate(-209.250000, -588.249980)" stroke="#000000" stroke-width="1.5">
            <g id="Expert-Advice-Icon" transform="translate(210.000000, 589.000000)">
                <path d="M29.673913,20.4021801 C29.9736957,20.4021801 30.2704348,20.4594717 30.5473913,20.5708064 C30.8243478,20.6821411 31.0760435,20.8451564 31.2880217,21.0508451 C31.4998478,21.2565337 31.668,21.5007613 31.7827391,21.7695003 C31.8974783,22.0382393 31.9565217,22.3261739 31.9565217,22.6170616 C31.9565217,22.9079494 31.8974783,23.195884 31.7827391,23.464623 C31.668,23.7333619 31.4998478,23.9775895 31.2880217,24.1832782 C31.0760435,24.3888192 30.8243478,24.5519821 30.5473913,24.6633168 C30.2704348,24.7746515 29.9736957,24.8319431 29.673913,24.8319431 L28.1521739,24.8319431 C28.7575217,24.8319431 29.3382174,25.065244 29.7662826,25.4806081 C30.1943478,25.8959722 30.4347826,26.4594381 30.4347826,27.0468247 C30.4347826,28.2709158 29.4121739,28.5234123 28.1521739,28.5234123 L18.2608696,28.5234123 C13.9223913,28.5234123 12.9347826,27.7851185 7.60869565,27.0468247 L7.60869565,14.4958294 C11.3369565,14.4958294 17.5,7.85117012 17.5,1.94481943 C17.5,-0.389665684 20.831087,-1.25936992 22.0652174,3.00648597 C22.826087,5.63628861 20.5434783,10.8043455 20.5434783,10.8043455 L32.7173913,10.8043455 C33.3227391,10.8043455 33.9034348,11.0377054 34.3315,11.4530695 C34.7595652,11.8684484 35,12.4318552 35,13.0192417 C35,14.2433329 33.9773913,15.9724171 32.7173913,15.9724171 L31.1956522,15.9724171 C31.801,15.9724171 32.3816957,16.2057179 32.8097609,16.6210821 C33.2378261,17.0364462 33.4782609,17.599912 33.4782609,18.1872986 C33.4782609,18.7746852 33.2378261,19.3380034 32.8097609,19.7535152 C32.3816957,20.1688793 31.801,20.4021801 31.1956522,20.4021801 L29.673913,20.4021801" id="Path" stroke-linecap="round" stroke-linejoin="round"></path>
                <polygon id="Path" stroke-linecap="round" stroke-linejoin="round" points="7.60869565 12.2809479 0 12.2809479 0 30 7.60869565 30"></polygon>
                <path d="M4.18478261,27.0468247 C3.97467609,27.0468247 3.80434783,26.8815945 3.80434783,26.6776777 C3.80434783,26.473761 3.97467609,26.3085308 4.18478261,26.3085308" id="Path"></path>
                <path d="M4.18478261,27.0468247 C4.39488913,27.0468247 4.56521739,26.8815945 4.56521739,26.6776777 C4.56521739,26.473761 4.39488913,26.3085308 4.18478261,26.3085308" id="Path"></path>
            </g>
        </g>
    </g>
</svg>