<?xml version="1.0" encoding="UTF-8"?>
<svg width="16px" height="16px" viewBox="0 0 16 16" version="1.1" xmlns="http://www.w3.org/2000/svg" xmlns:xlink="http://www.w3.org/1999/xlink">
    <title>In Stock Icon</title>
    <g id="Page-1" stroke="none" stroke-width="1" fill="none" fill-rule="evenodd">
        <g id="Direct-Pool-Supplies---Product-Page-v3" transform="translate(-1674.000000, -612.000000)" fill="#008A00" fill-rule="nonzero">
            <g id="Group-5-Copy" transform="translate(1490.000000, 604.000000)">
                <g id="Group-2-Copy-11" transform="translate(102.000000, 0.000000)">
                    <g id="In-Stock-Icon" transform="translate(82.000000, 8.000000)">
                        <path d="M15.4159688,6.84175943 L14.1395065,5.81195178 C13.9312441,5.64524973 13.8258261,5.3809123 13.8620146,5.1161358 L14.035447,3.48792641 C14.084231,3.04970184 13.9321458,2.61294403 13.6219586,2.30047122 C13.3117714,1.98799841 12.8769871,1.83356248 12.4398691,1.88059149 L10.8096047,2.05454549 C10.5456221,2.09084283 10.2820773,1.98510786 10.1158751,1.7762191 L9.10996727,0.516792173 C8.82537372,0.18850091 8.41291991,0 7.97918811,0 C7.54545632,0 7.13300251,0.18850091 6.84840896,0.516792173 L5.82168923,1.79709358 C5.65548704,2.00598234 5.39194224,2.11171731 5.12795969,2.07541997 L3.51850715,1.90146597 C3.08138908,1.85443696 2.64660482,2.00887289 2.33641761,2.3213457 C2.0262304,2.63381851 1.87414526,3.07057632 1.9229292,3.50880089 L2.09636158,5.13701028 C2.13255009,5.40178678 2.02713216,5.66612421 1.81886977,5.83282626 L0.542407405,6.84175943 C0.199506629,7.1177762 0,7.53494682 0,7.97593948 C0,8.41693214 0.199506629,8.83410277 0.542407405,9.11011953 L1.81886977,10.1399272 C2.025991,10.3074772 2.1311407,10.571142 2.09636158,10.8357432 L1.9229292,12.4709107 C1.87421696,12.9082816 2.02753519,13.3439897 2.33916692,13.6537979 C2.64391172,13.9728533 3.08160692,14.1277986 3.51850715,14.0712875 L5.14877158,13.8973335 C5.41275412,13.8610361 5.67629893,13.9667711 5.84250112,14.1756599 L6.86922084,15.4559613 C7.14440996,15.7998933 7.56032968,16 8,16 C8.43967032,16 8.85559004,15.7998933 9.13077916,15.4559613 L10.1574989,14.1756599 C10.3237011,13.9667711 10.5872459,13.8610361 10.8512284,13.8973335 L12.4814929,14.0712875 C12.9183931,14.1277986 13.3560883,13.9728533 13.6608331,13.6537979 C13.9724648,13.3439897 14.125783,12.9082816 14.0770708,12.4709107 L13.9036384,10.8357432 C13.8688593,10.571142 13.974009,10.3074772 14.1811302,10.1399272 L15.4575926,9.11011953 C15.8004934,8.83410277 16,8.41693214 16,7.97593948 C16,7.53494682 15.8004934,7.1177762 15.4575926,6.84175943 L15.4159688,6.84175943 Z M8.25667993,10.1120945 C8.04045077,10.3943451 7.71415334,10.5703158 7.36016347,10.5955819 C7.0061736,10.620848 6.65832057,10.4929947 6.40442205,10.2442996 L4.71172196,8.54650859 C4.53575151,8.3700089 4.46702722,8.112755 4.53143687,7.87165194 C4.59584653,7.63054888 4.78360476,7.44222595 5.02398486,7.37762259 C5.26436496,7.31301922 5.52084747,7.3819502 5.69681791,7.55844989 L7.28545857,9.12403585 L9.99794109,5.49883459 C10.1466485,5.29996171 10.3898391,5.19576865 10.6359053,5.22550393 C10.8819716,5.25523922 11.0935302,5.41438535 11.190889,5.64299352 C11.2882478,5.87160169 11.2566158,6.13494088 11.1079084,6.33381377 L8.25667993,10.1120945 Z" id="Shape"></path>
                    </g>
                </g>
            </g>
        </g>
    </g>
</svg>