<?xml version="1.0" encoding="utf-8"?>
<!-- Generator: Adobe Illustrator 23.0.2, SVG Export Plug-In . SVG Version: 6.00 Build 0)  -->
<svg version="1.1" id="Layer_1" xmlns="http://www.w3.org/2000/svg" xmlns:xlink="http://www.w3.org/1999/xlink" x="0px" y="0px"
	 viewBox="0 0 283.46 85.84" style="enable-background:new 0 0 283.46 85.84;" xml:space="preserve">
<style type="text/css">
	.st0{fill:#2696A8;}
</style>
<g>
	<g>
		<path class="st0" d="M256.08,25.54c0-2.95,2.39-5.12,5.21-5.12c2.81,0,5.2,2.18,5.2,5.12c0,2.98-2.39,5.15-5.2,5.15
			C258.46,30.69,256.08,28.51,256.08,25.54z M261.29,29.83c2.33,0,4.17-1.82,4.17-4.29c0-2.43-1.84-4.27-4.17-4.27
			c-2.34,0-4.18,1.83-4.18,4.27C257.11,28.01,258.94,29.83,261.29,29.83z M260.21,28.51h-0.9v-5.92h2.25c1.4,0,2.1,0.51,2.1,1.68
			c0,1.06-0.66,1.52-1.54,1.63l1.69,2.61h-1.01l-1.56-2.57h-1.03V28.51z M261.28,25.18c0.76,0,1.44-0.06,1.44-0.96
			c0-0.73-0.67-0.87-1.3-0.87h-1.22v1.83H261.28z"/>
	</g>
	<g>
		<g>
			<path class="st0" d="M14.32,67.96h3.08c3.78,0,4.2-0.84,4.2-3.5V28.49c0-2.66-0.42-3.5-4.2-3.5h-3.08v-3.77h27.01v3.77h-3.08
				c-3.78,0-4.2,0.84-4.2,3.5v35.97c0,2.66,0.42,3.5,4.2,3.5h3.08v3.78H14.32V67.96z"/>
			<path class="st0" d="M43.64,21.22h18.05L88.77,53.4V33.74c0-6.51-1.19-8.46-7.69-8.75v-3.77h20.15v3.77
				c-6.51,0.29-7.7,2.24-7.7,8.75v38.7h-4.55L56.23,33.04h-0.14v26.17c0,6.51,1.19,8.46,7.7,8.75v3.78H43.64v-3.78
				c6.51-0.29,7.7-2.24,7.7-8.75V28.77c-1.75-2.52-4.47-3.78-7.7-3.78V21.22z"/>
			<path class="st0" d="M112.42,67.96h3.92c3.77,0,4.2-0.84,4.2-3.5v-37.3c0-1.96-0.42-2.52-2.66-2.52
				c-7.42,0-10.99,9.23-11.83,15.6h-3.43l1.12-19.03h46.04l1.12,19.03h-3.43c-0.84-6.37-4.41-15.6-11.82-15.6
				c-2.24,0-2.66,0.56-2.66,2.52v37.3c0,2.66,0.42,3.5,4.2,3.5h3.92v3.78h-28.69V67.96z"/>
			<path class="st0" d="M153.29,67.96h3.08c3.78,0,4.2-0.84,4.2-3.5V28.49c0-2.66-0.42-3.5-4.2-3.5h-3.08v-3.77h46.95l0.48,18.33
				h-3.5c-3.01-10.21-6.51-14.56-17.7-14.56c-5.39,0-6.51,0.98-6.51,4.97v13.65h1.33c5.74,0,9.03-3.99,9.72-10.08h3.64l0.27,24.57
				h-3.92c-0.21-6.44-4.27-10.71-10.22-10.71h-0.84v16.02c0,3.85,0.56,4.55,7.77,4.55c10.07,0,14.27-4.9,17.21-15.11l3.5,0.28
				l-0.77,18.61h-47.44V67.96z"/>
			<path class="st0" d="M204.15,67.96c3.43-0.29,6.3-1.61,8.4-4.2l11.96-14.7l-14.97-21.33c-1.62-2.24-2.45-2.45-5.39-2.73v-3.77
				h24.7v3.77h-0.98c-3.22,0.07-3.91,0.63-3.91,1.68c0,0.49,0.28,1.2,0.98,2.1l7.42,10.56c6.79-7.76,7.56-9.72,7.56-10.78
				c0-2.45-2.45-3.57-6.93-3.57v-3.77h21.62v3.77c-3.7,0.14-6.16,1.4-10.01,6.16l-9.66,12.1l14.13,20.15
				c2.52,3.57,3.78,4.41,7.27,4.55v3.78h-25.11v-3.78h1.54c2.52,0,3.43-0.56,3.43-1.47c0-0.77-0.42-1.4-1.26-2.59l-7.83-11.27
				c-7.07,8.89-7.69,9.79-7.69,11.83c0,2.02,1.82,3.5,5.73,3.5h1.96v3.78h-22.95V67.96z"/>
		</g>
	</g>
</g>
</svg>
