<?xml version="1.0" encoding="UTF-8"?>
<svg width="14px" height="19px" viewBox="0 0 14 19" version="1.1" xmlns="http://www.w3.org/2000/svg" xmlns:xlink="http://www.w3.org/1999/xlink">
    <title>4E4C7040-572A-48ED-83AD-2F1ED8F1E901</title>
    <g id="Page-1" stroke="none" stroke-width="1" fill="none" fill-rule="evenodd">
        <g id="Direct-Pool-Supplies---Homepage-v8" transform="translate(-1379.000000, -7222.000000)" fill="#FFFFFF" fill-rule="nonzero">
            <g id="Location" transform="translate(1379.000000, 7222.000000)">
                <path d="M7,0 C3.13656806,0.00616212357 0.0061765617,3.12923612 0,6.98363703 C0,10.0725534 4.29647436,16.1160855 6.1474359,18.5670734 C6.34588752,18.8390874 6.66277342,19 7,19 C7.33722658,19 7.65411248,18.8390874 7.8525641,18.5670734 C9.70352564,16.1160855 14,10.0725534 14,6.98363703 C13.9938234,3.12923612 10.8634319,0.00616212357 7,0 Z M7,9.66965127 C5.51307952,9.66965127 4.30769231,8.46708173 4.30769231,6.98363703 C4.30769231,5.50019233 5.51307952,4.29762279 7,4.29762279 C8.48692048,4.29762279 9.69230769,5.50019233 9.69230769,6.98363703 C9.69230769,7.6960123 9.40865466,8.37921053 8.90374903,8.88293591 C8.39884339,9.3866613 7.7140444,9.66965127 7,9.66965127 Z" id="Shape"></path>
            </g>
        </g>
    </g>
</svg>