<?xml version="1.0" encoding="UTF-8"?>
<svg width="45px" height="45px" viewBox="0 0 45 45" version="1.1" xmlns="http://www.w3.org/2000/svg" xmlns:xlink="http://www.w3.org/1999/xlink">
    <title>Lowest Prices Everyday Icon</title>
    <g id="Page-1" stroke="none" stroke-width="1" fill="none" fill-rule="evenodd">
        <g id="Direct-Pool-Supplies---Homepage-v7" transform="translate(-1153.000000, -2510.000000)" fill="#FFFFFF" fill-rule="nonzero">
            <g id="Lowest-Prices-Everyday-Icon" transform="translate(1153.000000, 2510.000000)">
                <path d="M13.1268742,2.8125 C15.5559052,2.87381595 17.8753134,3.83619952 19.6340533,5.5125 L40.2619986,26.1375 L40.2619986,26.1375 C41.0058246,26.8971142 41.5585703,27.8225097 41.8747288,28.8375 C41.9195183,28.9980569 42.0494018,29.1207072 42.212277,29.15625 C42.3716664,29.1937166 42.5393374,29.1518048 42.6623413,29.04375 L43.900018,27.80625 C44.6042824,27.102869 45,26.1484097 45,25.153125 C45,24.1578403 44.6042824,23.203381 43.900018,22.5 L43.900018,22.5 L23.2720728,1.875 C22.0404977,0.726370529 20.4357786,0.0606070139 18.7526775,0 L9.37633874,0 C7.93365984,0.00408336255 6.62120542,0.835185815 6.00085679,2.1375 C5.91638015,2.27560956 5.91638015,2.44939044 6.00085679,2.5875 C6.07541825,2.73439222 6.23023738,2.82284766 6.39466302,2.8125 L13.1268742,2.8125 Z" id="Path"></path>
                <path d="M22.503213,43.89375 C23.2033447,44.5979771 24.1542421,44.9958135 25.1473405,45 L25.1473405,45 C26.1404389,44.9958135 27.0913363,44.5979771 27.791468,43.89375 L33.4172713,38.26875 L38.2742147,33.43125 C38.9784792,32.727869 39.3741968,31.7734097 39.3741968,30.778125 C39.3741968,29.7828403 38.9784792,28.828381 38.2742147,28.125 L38.2742147,28.125 L17.6462695,7.5 C16.4146945,6.35137053 14.8099753,5.68560701 13.1268742,5.625 L3.7505355,5.625 C1.67917194,5.625 0,7.30393219 0,9.375 L0,18.75 C0.0606156685,20.4328608 0.726474254,22.0373508 1.87526775,23.26875 L22.503213,43.89375 Z M10.3139726,13.125 C11.8674953,13.125 13.1268742,14.3841991 13.1268742,15.9375 C13.1268742,17.4908009 11.8674953,18.75 10.3139726,18.75 C8.76044995,18.75 7.50107099,17.4908009 7.50107099,15.9375 C7.50107099,14.3841991 8.76044995,13.125 10.3139726,13.125 L10.3139726,13.125 Z" id="Shape"></path>
            </g>
        </g>
    </g>
</svg>