<?xml version="1.0" encoding="UTF-8"?>
<svg width="16.8001902px" height="17.9112303px" viewBox="0 0 16.8001902 17.9112303" version="1.1" xmlns="http://www.w3.org/2000/svg" xmlns:xlink="http://www.w3.org/1999/xlink">
    <title>Out of Stock Icon</title>
    <g id="Page-1" stroke="none" stroke-width="1" fill="none" fill-rule="evenodd">
        <g id="Direct-Pool-Supplies---Product-Page---Sold-Out-v3" transform="translate(-1674.000000, -610.000000)" stroke="#E23339">
            <g id="Group-5-Copy" transform="translate(1441.000000, 603.000000)">
                <g id="Group-2-Copy-11" transform="translate(112.000000, 0.000000)">
                    <g id="Out-of-Stock-Icon" transform="translate(129.500000, 16.000000) scale(-1, 1) translate(-129.500000, -16.000000) translate(122.000000, 8.000000)">
                        <path d="M3.20198909,12.7806863 L10.2958113,12.7806863 C10.5491468,12.7806863 10.7943309,12.6917035 10.9879613,12.5292905 C11.1815201,12.3669484 11.3109407,12.1418284 11.3533421,11.8936993 L13.2388787,0.886276797 C13.2814231,0.638325247 13.4109152,0.413318892 13.6044741,0.251111779 C13.7980329,0.0888975641 14.0431456,0 14.2964095,0 L15,0" id="Path" stroke-width="2" stroke-linecap="round" stroke-linejoin="round"></path>
                        <path d="M4.54267215,15.9112303 C4.39458209,15.9112303 4.27453554,15.7919948 4.27453554,15.6449212 C4.27453554,15.4978475 4.39458209,15.378612 4.54267215,15.378612" id="Path" stroke-width="2"></path>
                        <path d="M4.54267215,15.9112303 C4.69076221,15.9112303 4.81080876,15.7919948 4.81080876,15.6449212 C4.81080876,15.4978475 4.69076221,15.378612 4.54267215,15.378612" id="Path" stroke-width="2"></path>
                        <path d="M9.90540438,15.9112303 C9.75732147,15.9112303 9.63726777,15.7919948 9.63726777,15.6449212 C9.63726777,15.4978475 9.75732147,15.378612 9.90540438,15.378612" id="Path" stroke-width="2"></path>
                        <path d="M9.90540438,15.9112303 C10.0534873,15.9112303 10.173541,15.7919948 10.173541,15.6449212 C10.173541,15.4978475 10.0534873,15.378612 9.90540438,15.378612" id="Path" stroke-width="2"></path>
                        <path d="M11.7486827,9.5851188 L3.11756539,9.5851188 C2.63926688,9.58504778 2.17470411,9.42625653 1.79770403,9.13388462 C1.42070396,8.84158372 1.15288911,8.43246189 1.03682528,7.97164058 L0,3.852719" id="Path" stroke-width="1.6" stroke-linecap="round" stroke-linejoin="round"></path>
                        <g id="Group" transform="translate(3.145264, 0.000000)" stroke-linecap="round" stroke-linejoin="round" stroke-width="2">
                            <line x1="0" y1="0" x2="5.53221002" y2="5.52631579" id="Path"></line>
                            <line x1="5.53221002" y1="0" x2="0" y2="5.52631579" id="Path"></line>
                        </g>
                    </g>
                </g>
            </g>
        </g>
    </g>
</svg>