<?xml version="1.0" encoding="UTF-8"?>
<svg width="55.8956058px" height="55.3043493px" viewBox="0 0 55.8956058 55.3043493" version="1.1" xmlns="http://www.w3.org/2000/svg" xmlns:xlink="http://www.w3.org/1999/xlink">
    <title>Pool Cleaners Parts Icon</title>
    <g id="Page-1" stroke="none" stroke-width="1" fill="none" fill-rule="evenodd" stroke-linecap="round" stroke-linejoin="round">
        <g id="Direct-Pool-Supplies---Collection-Page-v4" transform="translate(-268.250000, -2398.249999)" stroke="#000000" stroke-width="1.5">
            <g id="Pool-Cleaners-Parts-Icon" transform="translate(269.000000, 2399.000000)">
                <path d="M27.8021978,46.6304348 L20.5494505,46.6304348 L20.5494505,45.4347826 C20.5494505,42.7934208 18.3846735,40.6521739 15.7142857,40.6521739 C13.0438979,40.6521739 10.8791209,42.7934208 10.8791209,45.4347826 L10.8791209,46.6304348 L3.62637363,46.6304348 C1.62358278,46.6304348 0,48.2363699 0,50.2173913 C0,52.1984127 1.62358278,53.8043478 3.62637363,53.8043478 L27.8021978,53.8043478 C29.8049887,53.8043478 31.4285714,52.1984127 31.4285714,50.2173913 C31.4285714,48.2363699 29.8049887,46.6304348 27.8021978,46.6304348 Z" id="Path"></path>
                <line x1="15.7142857" y1="40.6521739" x2="54.3956044" y2="0" id="Path"></line>
                <line x1="37.4725275" y1="47.826087" x2="41.0989011" y2="47.826087" id="Path"></line>
                <line x1="47.1428571" y1="47.826087" x2="48.3516484" y2="47.826087" id="Path"></line>
                <line x1="37.4725275" y1="53.8043478" x2="47.1428571" y2="53.8043478" id="Path"></line>
                <line x1="53.1868132" y1="53.8043478" x2="54.3956044" y2="53.8043478" id="Path"></line>
            </g>
        </g>
    </g>
</svg>