<?xml version="1.0" encoding="UTF-8"?>
<svg width="44.5px" height="44.5434783px" viewBox="0 0 44.5 44.5434783" version="1.1" xmlns="http://www.w3.org/2000/svg" xmlns:xlink="http://www.w3.org/1999/xlink">
    <title>Pool Chemicals Icon</title>
    <g id="Page-1" stroke="none" stroke-width="1" fill="none" fill-rule="evenodd" stroke-linecap="round" stroke-linejoin="round">
        <g id="Direct-Pool-Supplies---Collection-Page-v4" transform="translate(-612.250000, -2549.206522)" stroke="#000000" stroke-width="1.5">
            <g id="Pool-Chemicals-Icon" transform="translate(613.000000, 2549.000000)">
                <path d="M7.64444444,0.956521739 L7.64444444,5.26086957 L9.55555556,11.4782609 L9.55555556,22.9565217 C9.55555556,24.0130665 8.69992197,24.8695652 7.64444444,24.8695652 L1.91111111,24.8695652 C0.855633589,24.8695652 0,24.0130665 0,22.9565217 L0,11.4782609 L1.91111111,5.26086957 L1.91111111,0.956521739" id="Path"></path>
                <path d="M24.3666667,0.956521739 L24.3666667,5.26086957 L26.2777778,11.4782609 L26.2777778,22.9565217 C26.2777778,24.0130665 25.4221442,24.8695652 24.3666667,24.8695652 L18.6333333,24.8695652 C17.5778558,24.8695652 16.7222222,24.0130665 16.7222222,22.9565217 L16.7222222,11.4782609 L18.6333333,5.26086957 L18.6333333,0.956521739" id="Path"></path>
                <line x1="42.5222222" y1="0.956521739" x2="33.9222222" y2="0.956521739" id="Path"></line>
                <line x1="17.3108444" y1="9.56521739" x2="25.6891556" y2="9.56521739" id="Path"></line>
                <path d="M43,22.9565217 C43,24.0130665 42.1443664,24.8695652 41.0888889,24.8695652 L35.3555556,24.8695652 C34.300078,24.8695652 33.4444444,24.0130665 33.4444444,22.9565217 L33.4444444,11.4782609 L35.3555556,5.26086957 L35.3555556,0.956521739 L41.0888889,0.956521739 L41.0888889,5.26086957 L43,11.4782609 L43,22.9565217 Z" id="Path"></path>
                <line x1="34.0330667" y1="9.56521739" x2="42.4113778" y2="9.56521739" id="Path"></line>
                <path d="M35.7912889,30.6086957 L6.8284,30.6086957 C3.13422867,30.6086957 0.139511111,33.6064412 0.139511111,37.3043478 C0.139511111,41.0022544 3.13422867,44 6.8284,44 L35.7912889,44 C39.4854602,44 42.4801778,41.0022544 42.4801778,37.3043478 C42.4801778,33.6064412 39.4854602,30.6086957 35.7912889,30.6086957 Z" id="Path"></path>
                <polyline id="Path" points="7.93302222 40.173913 9.57084444 37.3043478 7.93302222 34.4347826"></polyline>
                <polyline id="Path" points="14.4174222 40.173913 16.0552444 37.3043478 14.4174222 34.4347826"></polyline>
                <polyline id="Path" points="20.8999111 40.173913 22.5396444 37.3043478 20.8999111 34.4347826"></polyline>
                <polyline id="Path" points="27.3843111 40.173913 29.0221333 37.3043478 27.3843111 34.4347826"></polyline>
                <polyline id="Path" points="33.8687111 40.173913 35.5065333 37.3043478 33.8687111 34.4347826"></polyline>
            </g>
        </g>
    </g>
</svg>