<?xml version="1.0" encoding="UTF-8"?>
<svg width="45.5001088px" height="46.5px" viewBox="0 0 45.5001088 46.5" version="1.1" xmlns="http://www.w3.org/2000/svg" xmlns:xlink="http://www.w3.org/1999/xlink">
    <title>Pool Heating Parts Icon</title>
    <g id="Page-1" stroke="none" stroke-width="1" fill="none" fill-rule="evenodd" stroke-linecap="round" stroke-linejoin="round">
        <g id="Direct-Pool-Supplies---Collection-Page-v4" transform="translate(-612.249891, -2403.250000)" stroke="#000000" stroke-width="1.5">
            <g id="Pool-Heating-Parts-Icon" transform="translate(613.000000, 2404.000000)">
                <path d="M12.000526,30.3995614 L12.000526,3.91217572 C12.000526,1.75154073 10.2096944,0 8.00059176,0 C5.79148907,0 4.00065751,1.75154073 4.00065751,3.91217572 L4.00065751,30.3995614 C0.864964933,32.1702344 -0.663816179,35.7800623 0.273312172,39.2007397 C1.21044052,42.6214172 4.37980585,45 8.00059176,45 C11.6213777,45 14.790743,42.6214172 15.7278713,39.2007397 C16.6649997,35.7800623 15.1362186,32.1702344 12.000526,30.3995614 L12.000526,30.3995614 Z" id="Path"></path>
                <path d="M6.00062464,37.1656694 C6.00062464,38.2459868 6.89604042,39.1217572 8.00059176,39.1217572 C9.1051431,39.1217572 10.0005589,38.2459868 10.0005589,37.1656694 C10.0005589,36.0853519 9.1051431,35.2095815 8.00059176,35.2095815 C6.89604042,35.2095815 6.00062464,36.0853519 6.00062464,37.1656694 Z" id="Path"></path>
                <line x1="8.00059176" y1="35.2095815" x2="8.00059176" y2="13.692615" id="Path"></line>
                <path d="M18.0944258,9.38922173 C23.3193193,7.7833111 29.0128715,9.5524643 32.3320974,13.8132827 C35.6513232,18.074101 35.8841956,23.912571 32.9144335,28.4133449 C29.9446714,32.9141188 24.4093361,35.1117088 19.0724098,33.9087831" id="Path"></path>
                <line x1="22.0003616" y1="0" x2="22.0003616" y2="3.91217572" id="Path"></line>
                <line x1="44" y1="21.5169665" x2="40.0000658" y2="21.5169665" id="Path"></line>
                <line x1="37.5561059" y1="36.7294618" x2="34.7281524" y2="33.9635535" id="Path"></line>
                <line x1="37.554106" y1="6.30447117" x2="34.7261524" y2="9.07037941" id="Path"></line>
                <line x1="22.0003616" y1="43.0339329" x2="22.0003616" y2="39.1217572" id="Path"></line>
            </g>
        </g>
    </g>
</svg>