<?xml version="1.0" encoding="UTF-8"?>
<svg width="43.5px" height="43.5px" viewBox="0 0 43.5 43.5" version="1.1" xmlns="http://www.w3.org/2000/svg" xmlns:xlink="http://www.w3.org/1999/xlink">
    <title>Pool Toys Icon</title>
    <g id="Page-1" stroke="none" stroke-width="1" fill="none" fill-rule="evenodd" stroke-linecap="round" stroke-linejoin="round">
        <g id="Direct-Pool-Supplies---Collection-Page-v4" transform="translate(-1795.250000, -2550.250000)" stroke="#000000" stroke-width="1.5">
            <g id="Pool-Toys-Icon" transform="translate(1796.000000, 2551.000000)">
                <path d="M11.8695652,21 C11.8695652,26.0425999 15.9574001,30.1304348 21,30.1304348 C26.0425999,30.1304348 30.1304348,26.0425999 30.1304348,21 C30.1304348,15.9574001 26.0425999,11.8695652 21,11.8695652 C15.9574001,11.8695652 11.8695652,15.9574001 11.8695652,21 L11.8695652,21 Z" id="Path"></path>
                <path d="M23.7391304,2.02147826 C32.1519728,3.23954365 38.7604563,9.84802715 39.9785217,18.2608696" id="Path"></path>
                <path d="M2.01782609,18.2608696 C3.23789583,9.84429962 9.85247268,3.23492525 18.27,2.02147826" id="Path"></path>
                <path d="M18.2608696,39.9803478 C9.84574842,38.7641291 3.23499087,32.1541148 2.01782609,23.7391304" id="Path"></path>
                <path d="M39.9785217,23.7391304 C38.7651879,32.1546819 32.1545454,38.7660677 23.7391304,39.9803478" id="Path"></path>
                <path d="M23.7391304,12.2877391 L23.7391304,1.82608696 C23.7391304,0.817566979 22.9215635,0 21.9130435,0 L20.0869565,0 C19.0784365,0 18.2608696,0.817566979 18.2608696,1.82608696 L18.2608696,12.2877391" id="Path"></path>
                <path d="M18.2608696,29.7122609 L18.2608696,40.173913 C18.2608696,41.182433 19.0784365,42 20.0869565,42 L21.9130435,42 C22.9215635,42 23.7391304,41.182433 23.7391304,40.173913 L23.7391304,29.7122609" id="Path"></path>
                <path d="M12.2877391,18.2608696 L1.82608696,18.2608696 C0.817566979,18.2608696 0,19.0784365 0,20.0869565 L0,21.9130435 C0,22.9215635 0.817566979,23.7391304 1.82608696,23.7391304 L12.2877391,23.7391304" id="Path"></path>
                <path d="M29.7122609,23.7391304 L40.173913,23.7391304 C41.182433,23.7391304 42,22.9215635 42,21.9130435 L42,20.0869565 C42,19.0784365 41.182433,18.2608696 40.173913,18.2608696 L29.7122609,18.2608696" id="Path"></path>
            </g>
        </g>
    </g>
</svg>