<?xml version="1.0" encoding="UTF-8"?>
<svg width="64px" height="45px" viewBox="0 0 64 45" version="1.1" xmlns="http://www.w3.org/2000/svg" xmlns:xlink="http://www.w3.org/1999/xlink">
    <title>Same Day Dispatch Icon</title>
    <g id="Page-1" stroke="none" stroke-width="1" fill="none" fill-rule="evenodd">
        <g id="Direct-Pool-Supplies---Homepage-v7" transform="translate(-265.000000, -2510.000000)" fill="#FFFFFF" fill-rule="nonzero">
            <g id="Same-Day-Dispatch-Icon" transform="translate(265.000000, 2510.000000)">
                <path d="M59.9993486,0 L29.3330149,0 C27.3455513,0.00697536242 25.6646256,1.4821757 25.3863911,3.46360383 C25.323687,3.78612048 25.0460624,4.02092786 24.7197316,4.02744632 L15.5198315,4.02744632 C12.9368834,3.97760704 10.6898492,5.79890099 10.1865561,8.35023868 L7.99991315,19.6270883 C8.0224019,19.6876915 8.0224019,19.7544326 7.99991315,19.8150358 C5.86893004,20.5118485 3.78465254,21.3459081 1.75998089,22.3120525 C0.681226292,23.0402774 0.0240472842,24.2533857 0,25.5608592 L0,36.300716 C0,38.5250132 1.79084156,40.3281914 3.99995657,40.3281914 L9.333232,40.3281914 C9.52430003,40.3299182 9.70761775,40.2522013 9.83989317,40.1133652 C9.97103083,39.9787735 10.0304766,39.7892349 9.99989143,39.603222 C9.99989143,39.3884248 9.99989143,39.2004773 9.99989143,38.9856802 C9.99989143,33.4249373 14.4769953,28.9170644 19.9997829,28.9170644 C25.5225704,28.9170644 29.9996743,33.4249373 29.9996743,38.9856802 C29.9996743,39.2004773 29.9996743,39.3884248 29.9996743,39.603222 C29.9690892,39.7892349 30.0285349,39.9787735 30.1596726,40.1133652 C30.291948,40.2522013 30.4752657,40.3299182 30.6663337,40.3281914 L38.6662469,40.3281914 C38.8573149,40.3299182 39.0406326,40.2522013 39.172908,40.1133652 C39.3040457,39.9787735 39.3634914,39.7892349 39.3329063,39.603222 C39.3329063,39.3884248 39.3329063,39.2004773 39.3329063,38.9856802 C39.3329063,33.4249373 43.8100102,28.9170644 49.3327977,28.9170644 C54.8555853,28.9170644 59.3326892,33.4249373 59.3326892,38.9856802 C59.3326892,39.2004773 59.3326892,39.3884248 59.3326892,39.603222 C59.302104,39.7892349 59.3615498,39.9787735 59.4926874,40.1133652 C59.6249629,40.2522013 59.8082806,40.3299182 59.9993486,40.3281914 L59.9993486,40.3281914 C62.2084636,40.3281914 63.9996612,38.5250132 63.9996612,36.300716 L63.9996612,4.0811456 C64.013574,3.00372678 63.5984587,1.96548046 62.8467693,1.19853358 C62.0950798,0.431586695 61.0695085,0 59.9993486,0 Z M15.413166,9.9612172 C15.4596303,9.6613422 15.7001601,9.43016758 15.9998263,9.39737471 L23.33308,9.39737471 C23.7055409,9.41180916 24.0000152,9.72016717 23.9997396,10.0954654 L23.9997396,16.8078759 C23.9854188,17.1680665 23.6910985,17.4525558 23.33308,17.4522675 L14.7198402,17.4522675 C14.5098285,17.4316546 14.3219073,17.3121518 14.213179,17.1300716 C14.1230888,16.962566 14.1230888,16.7605843 14.213179,16.5930788 L15.413166,9.9612172 Z" id="Shape"></path>
                <ellipse id="Oval" cx="19.9997829" cy="38.9588306" rx="5.99993486" ry="6.04116945"></ellipse>
                <ellipse id="Oval" cx="49.3327977" cy="38.9588306" rx="5.99993486" ry="6.04116945"></ellipse>
            </g>
        </g>
    </g>
</svg>