<?xml version="1.0" encoding="UTF-8"?>
<svg width="27px" height="25px" viewBox="0 0 27 25" version="1.1" xmlns="http://www.w3.org/2000/svg" xmlns:xlink="http://www.w3.org/1999/xlink">
    <title>BE130495-4594-4F8D-962F-ED5DE370B004</title>
    <g id="Page-1" stroke="none" stroke-width="1" fill="none" fill-rule="evenodd">
        <g id="Direct-Pool-Supplies---Homepage-v8" transform="translate(-1679.000000, -6931.000000)" fill="#FFFFFF" fill-rule="nonzero">
            <g id="Send-Email-Icon" transform="translate(1679.000000, 6931.000000)">
                <path d="M26.7866831,0.165106828 C26.6362766,0.0141405975 26.4145091,-0.0385337632 26.2131978,0.0288922205 L0.350136223,10.8125487 C0.12431253,10.9054127 -0.0164716219,11.1346326 0.0015471318,11.3801095 C0.00754058697,11.6110467 0.14897311,11.8162799 0.361381032,11.9022655 L7.47934538,14.6833138 C7.65434537,14.7509792 7.85087051,14.7298744 8.00785142,14.6265577 L17.4534913,7.81582731 C17.6081606,7.68605453 17.8196648,7.64943543 18.0083324,7.71976408 C18.1970001,7.79009273 18.334168,7.95668452 18.3681663,8.15678595 C18.4021647,8.35688737 18.3278284,8.56009826 18.1731591,8.68987104 L10.3017925,16.3519427 C10.1941575,16.4602201 10.1334926,16.6071935 10.1331204,16.7605866 L10.1331204,24.4340095 C10.1305686,24.6908098 10.3025162,24.9159878 10.5491783,24.9788679 C10.793605,25.0487959 11.0537105,24.940956 11.1788877,24.7177899 L14.7434922,18.5654301 C14.8174106,18.4337591 14.9806824,18.3838146 15.114571,18.4519179 L21.6702948,22.0956587 C21.8255322,22.1822081 22.0121216,22.1897509 22.1737177,22.1160094 C22.3353138,22.0422678 22.4529733,21.8958864 22.4911659,21.7210685 L26.9890897,0.721316478 C27.0304612,0.512253517 26.9522826,0.297420124 26.7866831,0.165106828 Z" id="Path"></path>
            </g>
        </g>
    </g>
</svg>