<?xml version="1.0" encoding="UTF-8"?>
<svg width="43.5px" height="43.5px" viewBox="0 0 43.5 43.5" version="1.1" xmlns="http://www.w3.org/2000/svg" xmlns:xlink="http://www.w3.org/1999/xlink">
    <title>Skimmer Box Parts Icon</title>
    <g id="Page-1" stroke="none" stroke-width="1" fill="none" fill-rule="evenodd" stroke-linecap="round" stroke-linejoin="round">
        <g id="Direct-Pool-Supplies---Collection-Page-v4" transform="translate(-1795.250000, -2404.250000)" stroke="#000000" stroke-width="1.5">
            <g id="Skimmer-Box-Parts-Icon" transform="translate(1796.000000, 2405.000000)">
                <path d="M26.4545455,9.09090909 C26.4545455,10.0950632 25.6405177,10.9090909 24.6363636,10.9090909 L17.3636364,10.9090909 C16.3594823,10.9090909 15.5454545,10.0950632 15.5454545,9.09090909 L15.5454545,1.81818182 C15.5454545,0.814027728 16.3594823,0 17.3636364,0 L24.6363636,0 C25.6405177,0 26.4545455,0.814027728 26.4545455,1.81818182 L26.4545455,9.09090909 Z" id="Path"></path>
                <path d="M10.9090909,9.09090909 C10.9090909,10.0950632 10.0950632,10.9090909 9.09090909,10.9090909 L1.81818182,10.9090909 C0.814027728,10.9090909 0,10.0950632 0,9.09090909 L0,1.81818182 C0,0.814027728 0.814027728,0 1.81818182,0 L9.09090909,0 C10.0950632,0 10.9090909,0.814027728 10.9090909,1.81818182 L10.9090909,9.09090909 Z" id="Path"></path>
                <path d="M42,9.09090909 C42,10.0950632 41.1859723,10.9090909 40.1818182,10.9090909 L32.9090909,10.9090909 C31.9049368,10.9090909 31.0909091,10.0950632 31.0909091,9.09090909 L31.0909091,1.81818182 C31.0909091,0.814027728 31.9049368,0 32.9090909,0 L40.1818182,0 C41.1859723,0 42,0.814027728 42,1.81818182 L42,9.09090909 Z" id="Path"></path>
                <path d="M26.4545455,24.6363636 C26.4545455,25.6405177 25.6405177,26.4545455 24.6363636,26.4545455 L17.3636364,26.4545455 C16.3594823,26.4545455 15.5454545,25.6405177 15.5454545,24.6363636 L15.5454545,17.3636364 C15.5454545,16.3594823 16.3594823,15.5454545 17.3636364,15.5454545 L24.6363636,15.5454545 C25.6405177,15.5454545 26.4545455,16.3594823 26.4545455,17.3636364 L26.4545455,24.6363636 Z" id="Path"></path>
                <path d="M10.9090909,24.6363636 C10.9090909,25.6405177 10.0950632,26.4545455 9.09090909,26.4545455 L1.81818182,26.4545455 C0.814027728,26.4545455 0,25.6405177 0,24.6363636 L0,17.3636364 C0,16.3594823 0.814027728,15.5454545 1.81818182,15.5454545 L9.09090909,15.5454545 C10.0950632,15.5454545 10.9090909,16.3594823 10.9090909,17.3636364 L10.9090909,24.6363636 Z" id="Path"></path>
                <path d="M42,24.6363636 C42,25.6405177 41.1859723,26.4545455 40.1818182,26.4545455 L32.9090909,26.4545455 C31.9049368,26.4545455 31.0909091,25.6405177 31.0909091,24.6363636 L31.0909091,17.3636364 C31.0909091,16.3594823 31.9049368,15.5454545 32.9090909,15.5454545 L40.1818182,15.5454545 C41.1859723,15.5454545 42,16.3594823 42,17.3636364 L42,24.6363636 Z" id="Path"></path>
                <path d="M26.4545455,40.1818182 C26.4545455,41.1859723 25.6405177,42 24.6363636,42 L17.3636364,42 C16.3594823,42 15.5454545,41.1859723 15.5454545,40.1818182 L15.5454545,32.9090909 C15.5454545,31.9049368 16.3594823,31.0909091 17.3636364,31.0909091 L24.6363636,31.0909091 C25.6405177,31.0909091 26.4545455,31.9049368 26.4545455,32.9090909 L26.4545455,40.1818182 Z" id="Path"></path>
                <path d="M10.9090909,40.1818182 C10.9090909,41.1859723 10.0950632,42 9.09090909,42 L1.81818182,42 C0.814027728,42 0,41.1859723 0,40.1818182 L0,32.9090909 C0,31.9049368 0.814027728,31.0909091 1.81818182,31.0909091 L9.09090909,31.0909091 C10.0950632,31.0909091 10.9090909,31.9049368 10.9090909,32.9090909 L10.9090909,40.1818182 Z" id="Path"></path>
                <path d="M42,40.1818182 C42,41.1859723 41.1859723,42 40.1818182,42 L32.9090909,42 C31.9049368,42 31.0909091,41.1859723 31.0909091,40.1818182 L31.0909091,32.9090909 C31.0909091,31.9049368 31.9049368,31.0909091 32.9090909,31.0909091 L40.1818182,31.0909091 C41.1859723,31.0909091 42,31.9049368 42,32.9090909 L42,40.1818182 Z" id="Path"></path>
            </g>
        </g>
    </g>
</svg>