<?xml version="1.0" encoding="UTF-8"?>
<svg width="25.0000214px" height="25.0000213px" viewBox="0 0 25.0000214 25.0000213" version="1.1" xmlns="http://www.w3.org/2000/svg" xmlns:xlink="http://www.w3.org/1999/xlink">
    <title>Spare Parts Icon</title>
    <g id="Page-1" stroke="none" stroke-width="1" fill="none" fill-rule="evenodd">
        <g id="Direct-Pool-Supplies---Collection-Page-v4" transform="translate(-947.999979, -2394.000000)" fill="#79BAFF" fill-rule="nonzero">
            <g id="Spare-Parts-Icon" transform="translate(948.000000, 2394.000000)">
                <path d="M7.30224342,13.4518092 C6.90067338,13.0749134 6.27466436,13.0749134 5.87309432,13.4518092 C5.48894094,13.8540669 5.48894094,14.4865644 5.87309432,14.8888221 L6.22777366,15.2428688 C6.42533932,15.4417731 6.42533932,15.7624709 6.22777366,15.9613752 L0.594631211,21.5428168 C0.212312817,21.9234549 -0.00176447512,22.4408227 0,22.9798297 C-0.00248465601,23.5159227 0.2119188,24.0303241 0.594631211,24.4064295 C0.971408711,24.7884592 1.4867293,25.0024802 2.02378031,25 L2.02378031,25 C2.56375049,25.0017613 3.08204288,24.7880659 3.46336116,24.4064295 L9.05477662,18.824988 C9.14375937,18.7362709 9.26292829,18.6842275 9.38859247,18.679204 C9.52468899,18.6783879 9.65571475,18.7307047 9.75370356,18.824988 L10.1083829,19.1790346 C10.5113594,19.5625028 11.1449872,19.5625028 11.5479637,19.1790346 C11.925533,18.7781809 11.925533,18.1532886 11.5479637,17.7524348 L7.30224342,13.4518092 Z" id="Path"></path>
                <path d="M20.2897663,6.90194591 C20.4320158,6.94381101 20.5795969,6.96485643 20.7278996,6.96442474 L20.8635123,6.96442474 C21.3689412,6.92793792 21.831729,6.66832277 22.1257534,6.25633141 L22.1257534,6.25633141 L24.1286485,3.59056829 C24.4698353,3.12842756 24.4116216,2.48474905 23.9930358,2.09107654 L22.9498613,1.04976283 C22.5659233,0.632815123 21.9312889,0.565895867 21.4685535,0.893565768 L18.7771632,2.79916987 C18.3487211,3.08736307 18.0758782,3.55535543 18.0365093,4.0695726 C18.017062,4.30536808 18.0454456,4.542657 18.1199633,4.76725279 C18.1801401,4.9504745 18.1317095,5.15190852 17.9947823,5.28790965 L13.6447445,9.57812216 C13.5974192,9.62845783 13.5313441,9.65701139 13.462189,9.65701139 C13.3930339,9.65701139 13.3269588,9.62845783 13.2796335,9.57812216 L9.92061148,6.25633141 C9.79329943,6.12778863 9.74543308,5.9406465 9.79543054,5.76691396 C10.2299018,4.18489535 9.77983384,2.49183823 8.61675261,1.3329857 C7.45367138,0.174133177 5.75675594,-0.27198716 4.17271984,0.164646167 C3.98216499,0.206013525 3.83300443,0.354051093 3.79046399,0.544024092 C3.74792356,0.733997092 3.819743,0.93134208 3.97451668,1.04976283 L5.48711974,2.51801517 C5.56849304,2.59937681 5.61995498,2.7057864 5.63316418,2.81999614 L5.81050384,4.4340324 C5.83260826,4.58832347 5.77812834,4.74370273 5.66445941,4.85055789 C5.5486724,4.97082061 5.38041808,5.02550336 5.21589436,4.99634181 L3.64070083,4.81931848 C3.52715408,4.80322046 3.42143248,4.7522735 3.33818022,4.67353456 L1.82557715,3.13239026 C1.69571292,3.00724512 1.50935466,2.95974916 1.33528512,3.00743261 C1.15808362,3.05029084 1.01822602,3.18591016 0.97017404,3.36147928 C0.543446304,4.94095492 0.99272814,6.62771752 2.14896126,7.78706257 C3.30161067,8.94151393 4.98575311,9.39061234 6.5615895,8.96374707 C6.73748035,8.9208653 6.9230665,8.97210607 7.05188153,9.09911786 L10.431767,12.4417349 C10.5273967,12.5484615 10.5273967,12.7098813 10.431767,12.8166078 L10.2544273,12.983218 C9.98393533,13.2778131 9.98393533,13.7299366 10.2544273,14.0245317 L10.9742178,14.7430382 C11.1179965,14.8861163 11.3136758,14.9649996 11.5166685,14.9617141 C11.7167508,14.9658188 11.9095127,14.8865878 12.0486875,14.7430382 L19.8203377,7.0373167 C19.9426412,6.91387181 20.1203571,6.86262325 20.2897663,6.90194591 Z" id="Path"></path>
                <path d="M23.700947,16.4091401 C22.5515994,15.2490157 20.8660271,14.7955583 19.2883187,15.2220425 C19.1142757,15.2719508 18.9267992,15.2241698 18.7980267,15.0970849 L16.5239062,12.827021 C16.3203884,12.6404169 16.0076336,12.6404169 15.8041158,12.827021 L13.6551763,14.9721272 C13.4576106,15.1710315 13.4576106,15.4917294 13.6551763,15.6906337 L15.9292968,17.9606976 C16.0565355,18.0892828 16.1078678,18.2745379 16.0649094,18.450115 C15.6372814,20.0231405 16.0871823,21.7042787 17.2436967,22.8548721 C18.1049914,23.705055 19.2662538,24.1836887 20.4775377,24.1877536 C20.8756455,24.1877536 21.2720084,24.1352492 21.6563249,24.0315566 C21.8322078,23.9835903 21.9680694,23.8439822 22.0110042,23.6670968 C22.0587729,23.4933377 22.0111921,23.3073119 21.8858233,23.1776793 L20.3627885,21.6677744 C20.2800022,21.5874216 20.2282831,21.4804801 20.2167441,21.3657934 L20.0394044,19.7934097 C20.0240297,19.642955 20.0777251,19.4936418 20.1854488,19.3872974 C20.2924949,19.2738312 20.4481519,19.2194485 20.6027186,19.2415135 L22.2196392,19.4185368 C22.3316134,19.4297453 22.4355606,19.4816262 22.511728,19.5643207 L23.9930358,21.032573 C24.1199245,21.1626822 24.30752,21.213865 24.4830659,21.1662709 C24.6586118,21.1186768 24.794492,20.9797931 24.8380072,20.803484 C25.2656232,19.2410599 24.833075,17.5694107 23.700947,16.4091401 Z" id="Path"></path>
            </g>
        </g>
    </g>
</svg>