<?xml version="1.0" encoding="UTF-8"?>
<svg width="17.35px" height="17.35px" viewBox="0 0 17.35 17.35" version="1.1" xmlns="http://www.w3.org/2000/svg" xmlns:xlink="http://www.w3.org/1999/xlink">
    <title>Special Order Icon</title>
    <g id="Page-1" stroke="none" stroke-width="1" fill="none" fill-rule="evenodd" stroke-linecap="round" stroke-linejoin="round">
        <g id="Direct-Pool-Supplies---Product-Page---Special-Order-v3" transform="translate(-1673.325000, -609.325000)" stroke="#FF9427" stroke-width="1.35">
            <g id="Group-5-Copy" transform="translate(1439.000000, 603.000000)">
                <g id="Group-2-Copy-11" transform="translate(105.000000, 0.000000)">
                    <g id="Special-Order-Icon" transform="translate(130.000000, 7.000000)">
                        <path d="M14.9333333,7.46666667 L1.06666667,7.46666667 L1.06666667,14.9333333 C1.06666667,15.5224371 1.5442296,16 2.13333333,16 L13.8666667,16 C14.4557704,16 14.9333333,15.5224371 14.9333333,14.9333333 L14.9333333,7.46666667 Z" id="Path"></path>
                        <path d="M14.9333333,4.26666667 L1.06666667,4.26666667 C0.477562934,4.26666667 0,4.7442296 0,5.33333333 L0,6.93333333 C0,7.2278852 0.238781467,7.46666667 0.533333333,7.46666667 L15.4666667,7.46666667 C15.7612185,7.46666667 16,7.2278852 16,6.93333333 L16,5.33333333 C16,4.7442296 15.5224371,4.26666667 14.9333333,4.26666667 Z" id="Path"></path>
                        <path d="M7.46666667,4.26666667 C5.11004444,4.26666667 2.66666667,2.35662222 2.66666667,0" id="Path"></path>
                        <path d="M2.66666667,0 C5.02328889,0 7.46666667,1.91004444 7.46666667,4.26666667" id="Path"></path>
                        <path d="M8.53333333,4.26666667 C10.8899556,4.26666667 13.3333333,2.35662222 13.3333333,0" id="Path"></path>
                        <path d="M13.3333333,0 C10.9767111,0 8.53333333,1.91004444 8.53333333,4.26666667" id="Path"></path>
                        <polygon id="Path" points="6.4 4.26666667 9.6 4.26666667 9.6 16 6.4 16"></polygon>
                    </g>
                </g>
            </g>
        </g>
    </g>
</svg>